<svg width="256" height="56" viewBox="0 0 256 56" fill="none" xmlns="http://www.w3.org/2000/svg">
<rect x="7" y="7" width="248" height="48" stroke="#D6A322" stroke-width="2"/>
<rect width="250" height="50" fill="#D6A322"/>
<path d="M81.892 28.444H76.654L75.754 31H73.612L78.094 18.472H80.47L84.952 31H82.792L81.892 28.444ZM81.316 26.77L79.282 20.956L77.23 26.77H81.316ZM86.2168 25.996C86.2168 25 86.4208 24.118 86.8288 23.35C87.2488 22.582 87.8128 21.988 88.5208 21.568C89.2408 21.136 90.0388 20.92 90.9148 20.92C91.5628 20.92 92.1988 21.064 92.8228 21.352C93.4588 21.628 93.9628 22 94.3348 22.468V17.68H96.4048V31H94.3348V29.506C93.9988 29.986 93.5308 30.382 92.9308 30.694C92.3428 31.006 91.6648 31.162 90.8968 31.162C90.0328 31.162 89.2408 30.946 88.5208 30.514C87.8128 30.07 87.2488 29.458 86.8288 28.678C86.4208 27.886 86.2168 26.992 86.2168 25.996ZM94.3348 26.032C94.3348 25.348 94.1908 24.754 93.9028 24.25C93.6268 23.746 93.2608 23.362 92.8048 23.098C92.3488 22.834 91.8568 22.702 91.3288 22.702C90.8008 22.702 90.3088 22.834 89.8528 23.098C89.3968 23.35 89.0248 23.728 88.7368 24.232C88.4608 24.724 88.3228 25.312 88.3228 25.996C88.3228 26.68 88.4608 27.28 88.7368 27.796C89.0248 28.312 89.3968 28.708 89.8528 28.984C90.3208 29.248 90.8128 29.38 91.3288 29.38C91.8568 29.38 92.3488 29.248 92.8048 28.984C93.2608 28.72 93.6268 28.336 93.9028 27.832C94.1908 27.316 94.3348 26.716 94.3348 26.032ZM98.416 25.996C98.416 25 98.62 24.118 99.028 23.35C99.448 22.582 100.012 21.988 100.72 21.568C101.44 21.136 102.238 20.92 103.114 20.92C103.762 20.92 104.398 21.064 105.022 21.352C105.658 21.628 106.162 22 106.534 22.468V17.68H108.604V31H106.534V29.506C106.198 29.986 105.73 30.382 105.13 30.694C104.542 31.006 103.864 31.162 103.096 31.162C102.232 31.162 101.44 30.946 100.72 30.514C100.012 30.07 99.448 29.458 99.028 28.678C98.62 27.886 98.416 26.992 98.416 25.996ZM106.534 26.032C106.534 25.348 106.39 24.754 106.102 24.25C105.826 23.746 105.46 23.362 105.004 23.098C104.548 22.834 104.056 22.702 103.528 22.702C103 22.702 102.508 22.834 102.052 23.098C101.596 23.35 101.224 23.728 100.936 24.232C100.66 24.724 100.522 25.312 100.522 25.996C100.522 26.68 100.66 27.28 100.936 27.796C101.224 28.312 101.596 28.708 102.052 28.984C102.52 29.248 103.012 29.38 103.528 29.38C104.056 29.38 104.548 29.248 105.004 28.984C105.46 28.72 105.826 28.336 106.102 27.832C106.39 27.316 106.534 26.716 106.534 26.032ZM118.369 22.756V28.246C118.369 28.618 118.453 28.888 118.621 29.056C118.801 29.212 119.101 29.29 119.521 29.29H120.781V31H119.161C118.237 31 117.529 30.784 117.037 30.352C116.545 29.92 116.299 29.218 116.299 28.246V22.756H115.129V21.082H116.299V18.616H118.369V21.082H120.781V22.756H118.369ZM126.974 31.162C126.038 31.162 125.192 30.952 124.436 30.532C123.68 30.1 123.086 29.5 122.654 28.732C122.222 27.952 122.006 27.052 122.006 26.032C122.006 25.024 122.228 24.13 122.672 23.35C123.116 22.57 123.722 21.97 124.49 21.55C125.258 21.13 126.116 20.92 127.064 20.92C128.012 20.92 128.87 21.13 129.638 21.55C130.406 21.97 131.012 22.57 131.456 23.35C131.9 24.13 132.122 25.024 132.122 26.032C132.122 27.04 131.894 27.934 131.438 28.714C130.982 29.494 130.358 30.1 129.566 30.532C128.786 30.952 127.922 31.162 126.974 31.162ZM126.974 29.38C127.502 29.38 127.994 29.254 128.45 29.002C128.918 28.75 129.296 28.372 129.584 27.868C129.872 27.364 130.016 26.752 130.016 26.032C130.016 25.312 129.878 24.706 129.602 24.214C129.326 23.71 128.96 23.332 128.504 23.08C128.048 22.828 127.556 22.702 127.028 22.702C126.5 22.702 126.008 22.828 125.552 23.08C125.108 23.332 124.754 23.71 124.49 24.214C124.226 24.706 124.094 25.312 124.094 26.032C124.094 27.1 124.364 27.928 124.904 28.516C125.456 29.092 126.146 29.38 126.974 29.38ZM138.143 24.718C138.143 23.494 138.425 22.396 138.989 21.424C139.565 20.452 140.339 19.696 141.311 19.156C142.295 18.604 143.369 18.328 144.533 18.328C145.865 18.328 147.047 18.658 148.079 19.318C149.123 19.966 149.879 20.89 150.347 22.09H147.881C147.557 21.43 147.107 20.938 146.531 20.614C145.955 20.29 145.289 20.128 144.533 20.128C143.705 20.128 142.967 20.314 142.319 20.686C141.671 21.058 141.161 21.592 140.789 22.288C140.429 22.984 140.249 23.794 140.249 24.718C140.249 25.642 140.429 26.452 140.789 27.148C141.161 27.844 141.671 28.384 142.319 28.768C142.967 29.14 143.705 29.326 144.533 29.326C145.289 29.326 145.955 29.164 146.531 28.84C147.107 28.516 147.557 28.024 147.881 27.364H150.347C149.879 28.564 149.123 29.488 148.079 30.136C147.047 30.784 145.865 31.108 144.533 31.108C143.357 31.108 142.283 30.838 141.311 30.298C140.339 29.746 139.565 28.984 138.989 28.012C138.425 27.04 138.143 25.942 138.143 24.718ZM152.064 25.996C152.064 25 152.268 24.118 152.676 23.35C153.096 22.582 153.66 21.988 154.368 21.568C155.088 21.136 155.88 20.92 156.744 20.92C157.524 20.92 158.202 21.076 158.778 21.388C159.366 21.688 159.834 22.066 160.182 22.522V21.082H162.252V31H160.182V29.524C159.834 29.992 159.36 30.382 158.76 30.694C158.16 31.006 157.476 31.162 156.708 31.162C155.856 31.162 155.076 30.946 154.368 30.514C153.66 30.07 153.096 29.458 152.676 28.678C152.268 27.886 152.064 26.992 152.064 25.996ZM160.182 26.032C160.182 25.348 160.038 24.754 159.75 24.25C159.474 23.746 159.108 23.362 158.652 23.098C158.196 22.834 157.704 22.702 157.176 22.702C156.648 22.702 156.156 22.834 155.7 23.098C155.244 23.35 154.872 23.728 154.584 24.232C154.308 24.724 154.17 25.312 154.17 25.996C154.17 26.68 154.308 27.28 154.584 27.796C154.872 28.312 155.244 28.708 155.7 28.984C156.168 29.248 156.66 29.38 157.176 29.38C157.704 29.38 158.196 29.248 158.652 28.984C159.108 28.72 159.474 28.336 159.75 27.832C160.038 27.316 160.182 26.716 160.182 26.032ZM167 22.522C167.3 22.018 167.696 21.628 168.188 21.352C168.692 21.064 169.286 20.92 169.97 20.92V23.044H169.448C168.644 23.044 168.032 23.248 167.612 23.656C167.204 24.064 167 24.772 167 25.78V31H164.948V21.082H167V22.522ZM174.25 22.756V28.246C174.25 28.618 174.334 28.888 174.502 29.056C174.682 29.212 174.982 29.29 175.402 29.29H176.662V31H175.042C174.118 31 173.41 30.784 172.918 30.352C172.426 29.92 172.18 29.218 172.18 28.246V22.756H171.01V21.082H172.18V18.616H174.25V21.082H176.662V22.756H174.25Z" fill="#222222"/>
</svg>
